<svg id="Layer_1" data-name="Layer 1" xmlns="http://www.w3.org/2000/svg" xmlns:xlink="http://www.w3.org/1999/xlink" viewBox="0 0 16 16"><defs><style>.cls-1{fill:url(#linear-gradient);}.cls-2{fill:#fff;}</style><linearGradient id="linear-gradient" x1="8" x2="8" y2="16" gradientUnits="userSpaceOnUse"><stop offset="0.03" stop-color="#d3396d"/><stop offset="0.2" stop-color="#d3396d"/><stop offset="0.4" stop-color="#d3396d"/><stop offset="0.47" stop-color="#ec407a"/><stop offset="0.54" stop-color="#c93667"/><stop offset="0.66" stop-color="#d3396d"/><stop offset="0.81" stop-color="#ec407a"/><stop offset="0.92" stop-color="#ec407a"/></linearGradient></defs><circle class="cls-1" cx="8" cy="8" r="8"/><path class="cls-2" d="M9.13,8.15A1.13,1.13,0,1,1,8,7,1.13,1.13,0,0,1,9.13,8.15Z"/><path class="cls-2" d="M10.4,6H9.56c-.19,0-.38-.26-.52-.37a2.53,2.53,0,0,0-.67-.4C7.61,5,7,5.64,6.47,6H5.6a.76.76,0,0,0-.75.75v3.29a.76.76,0,0,0,.75.76h4.8a.76.76,0,0,0,.75-.76V6.77A.76.76,0,0,0,10.4,6ZM8,9.68A1.54,1.54,0,1,1,9.54,8.15,1.54,1.54,0,0,1,8,9.68Z"/></svg>