<svg id="Layer_1" data-name="Layer 1" xmlns="http://www.w3.org/2000/svg" xmlns:xlink="http://www.w3.org/1999/xlink" viewBox="0 0 16 16"><defs><style>.cls-1{fill:url(#linear-gradient);}.cls-2{fill:#fff;}</style><linearGradient id="linear-gradient" x1="8" x2="8" y2="16" gradientUnits="userSpaceOnUse"><stop offset="0" stop-color="#0063cb"/><stop offset="0.19" stop-color="#0063cb"/><stop offset="0.34" stop-color="#0063cb"/><stop offset="0.46" stop-color="#0070e6"/><stop offset="0.57" stop-color="#0063cb"/><stop offset="0.81" stop-color="#0070e6"/><stop offset="1" stop-color="#0070e6"/></linearGradient></defs><circle class="cls-1" cx="8" cy="8" r="8"/><path class="cls-2" d="M10.47,4.91H5.54a.42.42,0,0,0-.42.42v5.16a.42.42,0,0,0,.42.42H7.89a.43.43,0,0,0,.42-.4,2,2,0,0,1,2.16-2.18.41.41,0,0,0,.41-.42V5.33A.41.41,0,0,0,10.47,4.91ZM7.83,8.5l-.6,1.1-.6-1.1L5.55,7.91l1.08-.6.6-1.09.6,1.09,1.09.6ZM9.8,7l-.43.79L8.93,7l-.79-.44.79-.43.44-.8.43.8.8.43Z"/><path class="cls-2" d="M10.88,8.53v2a.39.39,0,0,1-.39.39h-2A2.14,2.14,0,0,1,10.88,8.53Z"/></svg>